<svg width="13" height="16" viewBox="0 0 13 16" fill="none" xmlns="http://www.w3.org/2000/svg">
<path d="M5.69007 13C5.52281 13.0017 5.36016 12.9451 5.23007 12.84L2.63007 10.7C2.54836 10.6433 2.47927 10.5704 2.42715 10.4857C2.37503 10.401 2.34102 10.3065 2.32725 10.208C2.31348 10.1095 2.32026 10.0093 2.34715 9.91356C2.37404 9.81783 2.42047 9.72872 2.48351 9.65182C2.54655 9.57493 2.62483 9.51193 2.71342 9.46679C2.80201 9.42164 2.89899 9.39534 2.99825 9.38953C3.09751 9.38372 3.1969 9.39854 3.29015 9.43304C3.3834 9.46754 3.4685 9.52098 3.54007 9.59L5.54007 11.26L9.31007 6.39C9.42677 6.23882 9.59874 6.1402 9.78815 6.11582C9.97756 6.09144 10.1689 6.1433 10.3201 6.26C10.4712 6.37669 10.5699 6.54866 10.5943 6.73807C10.6186 6.92748 10.5668 7.11882 10.4501 7.27L6.26007 12.72C6.20055 12.7954 6.12652 12.8582 6.04237 12.9045C5.95822 12.9509 5.86563 12.98 5.77007 12.99H5.69007V13Z" fill="#D65633"/>
<path d="M12 0H11V1H10V0H3V1H2V0H1C0.734784 0 0.48043 0.105357 0.292893 0.292893C0.105357 0.48043 0 0.734784 0 1V15C0 15.2652 0.105357 15.5196 0.292893 15.7071C0.48043 15.8946 0.734784 16 1 16H12C12.2652 16 12.5196 15.8946 12.7071 15.7071C12.8946 15.5196 13 15.2652 13 15V1C13 0.734784 12.8946 0.48043 12.7071 0.292893C12.5196 0.105357 12.2652 0 12 0V0ZM12 15H1V4H12V15Z" fill="#798288"/>
</svg>
